<svg width="20" height="20" viewBox="0 0 20 20" fill="none" xmlns="http://www.w3.org/2000/svg">
<path fill-rule="evenodd" clip-rule="evenodd" d="M3.88753 18.7501C3.18878 18.7501 2.52503 18.4726 2.02503 17.9789C1.52503 17.4851 1.25378 16.8151 1.25378 16.1164V3.87887C1.25378 3.18012 1.53128 2.51637 2.02503 2.01637C2.51878 1.51637 3.18878 1.24512 3.88753 1.24512H16.125C16.8238 1.24512 17.4875 1.52262 17.9875 2.01637C18.4875 2.51012 18.7588 3.18012 18.7588 3.87887V16.1164C18.7588 16.8151 18.4813 17.4789 17.9875 17.9789C17.4938 18.4789 16.8238 18.7501 16.125 18.7501H3.88753ZM14.575 11.3626H12.725V17.4751H16.125C16.3036 17.4756 16.4805 17.4408 16.6456 17.3727C16.8107 17.3046 16.9606 17.2045 17.0869 17.0783C17.2132 16.952 17.3133 16.802 17.3814 16.6369C17.4495 16.4718 17.4843 16.2949 17.4838 16.1164V3.87887C17.4839 3.70039 17.4489 3.52363 17.3807 3.3587C17.3125 3.19378 17.2124 3.04392 17.0862 2.91772C16.96 2.79151 16.8101 2.69144 16.6452 2.62321C16.4803 2.55499 16.3035 2.51995 16.125 2.52012H3.88753C3.52748 2.52111 3.18245 2.66458 2.92785 2.91918C2.67325 3.17378 2.52977 3.51881 2.52878 3.87887V16.1164C2.52977 16.4764 2.67325 16.8215 2.92785 17.0761C3.18245 17.3307 3.52748 17.4741 3.88753 17.4751H10.6875V11.3626H8.65003V9.32512H10.6875V8.23012C10.6875 6.15512 11.6975 5.24262 13.425 5.24262C14.2338 5.24262 14.6688 5.30137 14.875 5.33012L14.8875 5.33137V7.28137H13.7125C13.12 7.28137 12.84 7.53512 12.755 8.04637C12.7346 8.17954 12.725 8.31415 12.7263 8.44887V9.32012H14.8638L14.5725 11.3576L14.575 11.3626Z" fill="black"/>
</svg>
