<svg width="20" height="20" viewBox="0 0 20 20" fill="none" xmlns="http://www.w3.org/2000/svg">
<path d="M9.99997 1.25006C8.31247 1.25006 7.08747 1.27006 6.34997 1.30881C5.69234 1.33416 5.04091 1.44595 4.41247 1.64131C3.77303 1.86903 3.19227 2.23618 2.71231 2.71615C2.23234 3.19612 1.86519 3.77687 1.63747 4.41631C1.44211 5.04476 1.33031 5.69618 1.30497 6.35381C1.26622 7.09631 1.24622 8.31631 1.24622 10.0038C1.24622 11.6913 1.26622 12.9163 1.30497 13.6538C1.32872 14.3101 1.43997 14.9663 1.63747 15.5913C1.86497 16.2301 2.23122 16.8113 2.71247 17.2913C3.18747 17.7688 3.76997 18.1238 4.41247 18.3263C5.03372 18.5488 5.68747 18.6738 6.34997 18.6963C7.09247 18.7351 8.31247 18.7551 9.99997 18.7551C11.6875 18.7551 12.9125 18.7351 13.65 18.6963C14.3076 18.671 14.959 18.5592 15.5875 18.3638C16.2265 18.1353 16.8068 17.7679 17.2867 17.288C17.7665 16.8082 18.134 16.2278 18.3625 15.5888C18.5591 14.9605 18.67 14.3146 18.695 13.6513C18.7337 12.9088 18.7537 11.6888 18.7537 10.0013C18.7537 8.31381 18.7412 7.10131 18.715 6.36381C18.68 5.70156 18.5616 5.04637 18.3625 4.41381C18.1349 3.7745 17.7679 3.19383 17.2882 2.71387C16.8084 2.23391 16.2279 1.86669 15.5887 1.63881C14.9603 1.44345 14.3088 1.33166 13.6512 1.30631C12.907 1.26714 11.6904 1.24756 10.0012 1.24756L9.99997 1.25006ZM9.37497 17.2501C8.3333 17.2501 7.52496 17.2371 6.94996 17.2113C6.23523 17.1991 5.52512 17.0941 4.83747 16.8988C4.45704 16.7492 4.11153 16.5228 3.82248 16.2338C3.53343 15.9447 3.30705 15.5992 3.15747 15.2188C2.96222 14.5312 2.85717 13.821 2.84497 13.1063C2.81872 12.5338 2.80622 11.7313 2.80622 10.6813V9.43131C2.80622 8.38964 2.81913 7.58131 2.84497 7.00631C2.85247 6.29256 2.95747 5.58131 3.15747 4.89381C3.29871 4.50894 3.52204 4.15942 3.81193 3.86952C4.10183 3.57963 4.45134 3.35631 4.83622 3.21506C5.52387 3.01981 6.23398 2.91476 6.94872 2.90256C7.52122 2.87631 8.32371 2.86381 9.37371 2.86381H10.6237C11.6654 2.86381 12.4737 2.87673 13.0487 2.90256C13.7625 2.91006 14.4737 3.01506 15.1612 3.21506C15.5463 3.35615 15.8961 3.57941 16.1862 3.86931C16.4763 4.15921 16.6998 4.50881 16.8412 4.89381C17.0412 5.58006 17.1462 6.29381 17.1537 7.00631C17.1787 7.55381 17.1925 8.35631 17.1925 9.43131V10.6813C17.1925 11.723 17.1795 12.5313 17.1537 13.1063C17.1415 13.821 17.0365 14.5312 16.8412 15.2188C16.6916 15.5992 16.4652 15.9447 16.1762 16.2338C15.8872 16.5228 15.5416 16.7492 15.1612 16.8988C14.4762 17.0988 13.7612 17.2038 13.0487 17.2113C12.5025 17.2363 11.6987 17.2501 10.6237 17.2501H9.37497ZM14.6875 4.25006C14.471 4.24864 14.2591 4.31183 14.0788 4.43154C13.8985 4.55125 13.758 4.72204 13.6754 4.92205C13.5927 5.12205 13.5715 5.34218 13.6147 5.55426C13.6578 5.76635 13.7632 5.96074 13.9175 6.11256C14.0663 6.26788 14.2589 6.37435 14.4696 6.41787C14.6803 6.4614 14.8992 6.43993 15.0975 6.35631C15.2267 6.29994 15.3426 6.21687 15.4375 6.11256C15.6375 5.90256 15.7575 5.63131 15.7812 5.34256C15.7764 5.05398 15.6596 4.77858 15.4555 4.5745C15.2514 4.37042 14.976 4.25488 14.6875 4.25006ZM9.99997 5.65006C9.23084 5.64516 8.47481 5.84908 7.81247 6.24006C7.14997 6.62381 6.59872 7.17506 6.21247 7.84006C5.82848 8.50514 5.62633 9.25959 5.62633 10.0276C5.62633 10.7955 5.82848 11.55 6.21247 12.2151C6.59795 12.8787 7.15032 13.43 7.81473 13.8142C8.47914 14.1983 9.23249 14.4021 9.99997 14.4051C11.1596 14.4008 12.2706 13.9382 13.0906 13.1182C13.9106 12.2982 14.3732 11.1872 14.3775 10.0276C14.3775 9.26506 14.1737 8.50256 13.7875 7.84006C13.4037 7.17565 12.8519 6.62386 12.1875 6.24006C11.5251 5.84908 10.7691 5.64516 9.99997 5.65006ZM9.99997 12.8376C9.25404 12.8376 8.53867 12.5412 8.01123 12.0138C7.48378 11.4864 7.18747 10.771 7.18747 10.0251C7.18747 9.27914 7.48378 8.56377 8.01123 8.03632C8.53867 7.50887 9.25404 7.21256 9.99997 7.21256C10.7459 7.21256 11.4613 7.50887 11.9887 8.03632C12.5161 8.56377 12.8125 9.27914 12.8125 10.0251C12.8125 10.771 12.5161 11.4864 11.9887 12.0138C11.4613 12.5412 10.7459 12.8376 9.99997 12.8376Z" fill="black"/>
</svg>
